<svg xmlns="http://www.w3.org/2000/svg" viewBox="0 0 200 60">
  <style>
    .st0{fill:#0B4F75;}
    .st1{fill:#3A97D4;}
  </style>
  <path class="st0" d="M20.5,10c-11,0-20,9-20,20s9,20,20,20s20-9,20-20S31.5,10,20.5,10z M20.5,45c-8.3,0-15-6.7-15-15s6.7-15,15-15s15,6.7,15,15S28.8,45,20.5,45z"/>
  <path class="st1" d="M20.5,20c-5.5,0-10,4.5-10,10s4.5,10,10,10s10-4.5,10-10S26,20,20.5,20z"/>
  <path class="st0" d="M60,20h-5v20h5V20z"/>
  <path class="st0" d="M75,20h-5l-7.5,10.5L55,20h-5l10,15v5h5v-5L75,20z"/>
  <path class="st0" d="M90,20h-5l-7.5,10.5L70,20h-5l10,15v5h5v-5L90,20z"/>
  <path class="st0" d="M105,20h-5l-7.5,10.5L85,20h-5l10,15v5h5v-5L105,20z"/>
  <path class="st0" d="M120,20h-15v20h5V35h10c2.8,0,5-2.2,5-5v-5C125,22.2,122.8,20,120,20z M120,30h-10v-5h10V30z"/>
</svg>